<svg width="30" height="30" viewBox="0 0 30 30" fill="none" xmlns="http://www.w3.org/2000/svg">
<g clip-path="url(#clip0_41_156)">
<path d="M15 27C18.1826 27 21.2348 25.7357 23.4853 23.4853C25.7357 21.2348 27 18.1826 27 15C27 11.8174 25.7357 8.76516 23.4853 6.51472C21.2348 4.26428 18.1826 3 15 3C11.8174 3 8.76516 4.26428 6.51472 6.51472C4.26428 8.76516 3 11.8174 3 15C3 18.1826 4.26428 21.2348 6.51472 23.4853C8.76516 25.7357 11.8174 27 15 27ZM13.125 18.75H14.25V15.75H13.125C12.5016 15.75 12 15.2484 12 14.625C12 14.0016 12.5016 13.5 13.125 13.5H15.375C15.9984 13.5 16.5 14.0016 16.5 14.625V18.75H16.875C17.4984 18.75 18 19.2516 18 19.875C18 20.4984 17.4984 21 16.875 21H13.125C12.5016 21 12 20.4984 12 19.875C12 19.2516 12.5016 18.75 13.125 18.75ZM15 9C15.3978 9 15.7794 9.15804 16.0607 9.43934C16.342 9.72064 16.5 10.1022 16.5 10.5C16.5 10.8978 16.342 11.2794 16.0607 11.5607C15.7794 11.842 15.3978 12 15 12C14.6022 12 14.2206 11.842 13.9393 11.5607C13.658 11.2794 13.5 10.8978 13.5 10.5C13.5 10.1022 13.658 9.72064 13.9393 9.43934C14.2206 9.15804 14.6022 9 15 9Z" fill="white" fill-opacity="0.87"/>
</g>
<defs>
<clipPath id="clip0_41_156">
<rect width="24" height="24" fill="white" transform="translate(3 3)"/>
</clipPath>
</defs>
</svg>
