<svg width="30" height="30" viewBox="0 0 30 30" fill="none" xmlns="http://www.w3.org/2000/svg">
<g clip-path="url(#clip0_30_109)">
<path d="M4.5 4.5C2.84531 4.5 1.5 5.84531 1.5 7.5V22.5C1.5 24.1547 2.84531 25.5 4.5 25.5H25.5C27.1547 25.5 28.5 24.1547 28.5 22.5V7.5C28.5 5.84531 27.1547 4.5 25.5 4.5H4.5ZM8.25 16.5H11.25C13.3219 16.5 15 18.1781 15 20.25C15 20.6625 14.6625 21 14.25 21H5.25C4.8375 21 4.5 20.6625 4.5 20.25C4.5 18.1781 6.17812 16.5 8.25 16.5ZM6.75 12C6.75 11.2044 7.06607 10.4413 7.62868 9.87868C8.19129 9.31607 8.95435 9 9.75 9C10.5456 9 11.3087 9.31607 11.8713 9.87868C12.4339 10.4413 12.75 11.2044 12.75 12C12.75 12.7956 12.4339 13.5587 11.8713 14.1213C11.3087 14.6839 10.5456 15 9.75 15C8.95435 15 8.19129 14.6839 7.62868 14.1213C7.06607 13.5587 6.75 12.7956 6.75 12ZM18.75 10.5H24.75C25.1625 10.5 25.5 10.8375 25.5 11.25C25.5 11.6625 25.1625 12 24.75 12H18.75C18.3375 12 18 11.6625 18 11.25C18 10.8375 18.3375 10.5 18.75 10.5ZM18.75 13.5H24.75C25.1625 13.5 25.5 13.8375 25.5 14.25C25.5 14.6625 25.1625 15 24.75 15H18.75C18.3375 15 18 14.6625 18 14.25C18 13.8375 18.3375 13.5 18.75 13.5ZM18.75 16.5H24.75C25.1625 16.5 25.5 16.8375 25.5 17.25C25.5 17.6625 25.1625 18 24.75 18H18.75C18.3375 18 18 17.6625 18 17.25C18 16.8375 18.3375 16.5 18.75 16.5Z" fill="white" fill-opacity="0.87
"/>
</g>
<defs>
<clipPath id="clip0_30_109">
<rect width="27" height="24" fill="white" transform="translate(1.5 3)"/>
</clipPath>
</defs>
</svg>
