<svg width="30" height="30" viewBox="0 0 30 30" fill="none" xmlns="http://www.w3.org/2000/svg">
<path d="M23.4375 22.8125V10.3125H10.9375V9.53125C10.9375 8.23875 11.9887 7.1875 13.2812 7.1875H15.625V2.5H13.2812C11.4172 2.50232 9.63008 3.24385 8.31196 4.56196C6.99385 5.88008 6.25232 7.66716 6.25 9.53125V10.3125H3.125V15H6.25V22.8125H3.125V27.5H14.0625V22.8125H10.9375V15H18.7937V22.8125H15.625V27.5H26.5625V22.8125H23.4375Z" fill="white" fill-opacity="0.87"/>
<path d="M21.0937 7.1875C22.3882 7.1875 23.4375 6.13817 23.4375 4.84375C23.4375 3.54933 22.3882 2.5 21.0937 2.5C19.7993 2.5 18.75 3.54933 18.75 4.84375C18.75 6.13817 19.7993 7.1875 21.0937 7.1875Z" fill="white" fill-opacity="0.87"/>
</svg>
