<svg width="30" height="30" viewBox="0 0 30 30" fill="none" xmlns="http://www.w3.org/2000/svg">
<g clip-path="url(#clip0_30_104)">
<path d="M1.53394 14.9766C1.53394 15.8203 2.23579 16.4813 3.03121 16.4813H4.52848L4.49572 23.9906C4.49572 24.1172 4.50508 24.2437 4.51912 24.3703V25.125C4.51912 26.1609 5.35665 27 6.3907 27H7.13934C7.19081 27 7.24228 27 7.29374 26.9953C7.35925 27 7.42476 27 7.49026 27H9.01092H10.1339C11.1679 27 12.0055 26.1609 12.0055 25.125V24V21C12.0055 20.1703 12.6745 19.5 13.5027 19.5H16.4973C17.3254 19.5 17.9945 20.1703 17.9945 21V24V25.125C17.9945 26.1609 18.8321 27 19.8661 27H20.9891H22.4817C22.5518 27 22.622 26.9953 22.6922 26.9906C22.7484 26.9953 22.8045 27 22.8606 27H23.6093C24.6433 27 25.4809 26.1609 25.4809 25.125V19.875C25.4809 19.8328 25.4809 19.7859 25.4762 19.7438V16.4813H26.9781C27.8203 16.4813 28.4754 15.825 28.4754 14.9766C28.4754 14.5547 28.335 14.1797 28.0075 13.8516L16.0106 3.375C15.6831 3.04688 15.3088 3 14.9813 3C14.6538 3 14.2794 3.09375 13.9987 3.32812L2.04863 13.8516C1.67431 14.1797 1.48715 14.5547 1.53394 14.9766Z" fill="white" fill-opacity="0.87"/>
</g>
<defs>
<clipPath id="clip0_30_104">
<rect width="26.9508" height="24" fill="white" transform="matrix(-1 0 0 1 28.4754 3)"/>
</clipPath>
</defs>
</svg>
