<svg width="30" height="30" viewBox="0 0 30 30" fill="none" xmlns="http://www.w3.org/2000/svg">
<g clip-path="url(#clip0_64_56)">
<path d="M23.2031 16.4456C21.8259 16.4456 20.5322 15.8644 19.3603 14.9128L19.6434 13.5703L19.6528 13.5169C19.9116 12.0909 20.7122 9.69375 23.2022 9.69375C25.0678 9.69375 26.5809 11.2078 26.5809 13.0725C26.5809 14.9325 25.0669 16.4466 23.2022 16.4466L23.2031 16.4456ZM23.2031 6.27469C20.0297 6.27469 17.5631 8.33531 16.5628 11.7291C15.0394 9.43875 13.8769 6.68531 13.2037 4.36594H9.78562V13.2572C9.78094 15.015 8.35969 16.4362 6.60187 16.4409C4.84406 16.4362 3.42281 15.0103 3.41812 13.2572V4.36594H0V13.2572C0 16.8994 2.96344 19.8834 6.60187 19.8834C10.2441 19.8834 13.2037 16.9003 13.2037 13.2572V11.7675C13.8675 13.1494 14.6831 14.5556 15.6741 15.7959L13.5797 25.635H17.0756L18.5944 18.4959C19.9228 19.3453 21.4509 19.8825 23.2041 19.8825C26.9541 19.8825 30.0009 16.8159 30.0009 13.0706C30.0009 9.32062 26.9541 6.27375 23.2041 6.27375L23.2031 6.27469Z" fill="white" fill-opacity="0.87"/>
</g>
<defs>
<clipPath id="clip0_64_56">
<rect width="30" height="30" fill="white"/>
</clipPath>
</defs>
</svg>
