<svg width="30" height="30" viewBox="0 0 30 30" fill="none" xmlns="http://www.w3.org/2000/svg">
<path d="M11.625 5.25H18.375C18.5813 5.25 18.75 5.41875 18.75 5.625V7.5H11.25V5.625C11.25 5.41875 11.4187 5.25 11.625 5.25ZM9 5.625V7.5H6C4.34531 7.5 3 8.84531 3 10.5V15H12H18H27V10.5C27 8.84531 25.6547 7.5 24 7.5H21V5.625C21 4.17656 19.8234 3 18.375 3H11.625C10.1766 3 9 4.17656 9 5.625ZM27 16.5H18V18C18 18.8297 17.3297 19.5 16.5 19.5H13.5C12.6703 19.5 12 18.8297 12 18V16.5H3V22.5C3 24.1547 4.34531 25.5 6 25.5H24C25.6547 25.5 27 24.1547 27 22.5V16.5Z" fill="white" fill-opacity="0.87"/>
</svg>
